<?xml version="1.0" standalone="no"?>
<!DOCTYPE svg PUBLIC "-//W3C//DTD SVG 20010904//EN"
 "http://www.w3.org/TR/2001/REC-SVG-20010904/DTD/svg10.dtd">
<svg version="1.0" xmlns="http://www.w3.org/2000/svg"
 width="600.000000pt" height="600.000000pt" viewBox="0 0 600.000000 600.000000"
 preserveAspectRatio="xMidYMid meet">
<metadata>
Created by potrace 1.14, written by Peter Selinger 2001-2017
</metadata>
<g transform="translate(0.000000,600.000000) scale(0.100000,-0.100000)"
fill="#000000" stroke="none">
<path d="M2998 5995 c-1 -1 -40 -6 -84 -9 -80 -7 -100 -9 -174 -22 -19 -3 -46
-8 -60 -10 -183 -31 -404 -94 -600 -171 -172 -67 -465 -225 -595 -322 -27 -20
-61 -44 -75 -53 -86 -55 -336 -285 -462 -425 -188 -209 -380 -513 -497 -785
-80 -185 -162 -439 -187 -578 -2 -14 -9 -47 -15 -75 -5 -27 -13 -72 -16 -100
-3 -27 -6 -52 -8 -55 -9 -15 -20 -225 -20 -390 0 -173 9 -351 20 -382 2 -7 6
-33 9 -58 18 -171 105 -495 181 -675 9 -22 24 -58 33 -80 34 -80 129 -263 192
-368 149 -248 387 -528 600 -707 36 -30 67 -57 70 -60 27 -30 294 -215 377
-261 373 -209 702 -322 1123 -383 102 -15 205 -21 390 -21 236 0 360 10 506
39 12 2 39 7 60 10 21 4 68 14 104 22 36 9 75 18 88 20 35 7 284 89 360 119
288 114 620 318 861 530 63 55 245 239 291 294 25 29 50 59 55 65 24 25 154
205 187 256 62 98 61 97 33 112 -14 7 -130 76 -257 153 -128 77 -237 142 -242
144 -6 2 -15 8 -21 13 -13 11 -284 175 -310 188 -11 5 -96 56 -190 113 l-170
103 -3 797 -2 796 22 15 c13 7 42 24 65 37 22 13 92 53 154 89 61 36 130 76
153 89 23 13 97 56 166 96 69 40 197 114 285 165 216 125 214 124 265 154 25
14 64 36 88 48 23 12 42 27 42 33 0 24 -145 240 -249 370 -127 159 -302 335
-456 458 -33 27 -68 55 -78 63 -49 40 -246 168 -338 220 -326 182 -731 317
-1084 359 -27 3 -66 8 -85 11 -37 6 -496 15 -502 9z m1550 -1526 l-3 -691
-155 -90 c-85 -49 -173 -100 -195 -112 -22 -13 -94 -55 -160 -93 -66 -39 -140
-81 -165 -95 -25 -14 -112 -65 -195 -114 -82 -48 -159 -92 -170 -98 -85 -46
-295 -172 -295 -177 0 -4 30 -25 66 -46 37 -21 78 -46 93 -55 14 -10 33 -21
41 -25 8 -4 141 -83 295 -177 154 -93 289 -174 300 -180 11 -6 138 -82 283
-169 l262 -158 0 -675 c0 -371 -3 -674 -6 -674 -5 0 -49 25 -194 110 -104 61
-174 100 -181 100 -5 0 -9 5 -9 10 0 6 -5 10 -10 10 -6 0 -44 20 -84 45 -41
25 -79 45 -85 45 -6 0 -11 5 -11 10 0 6 -5 10 -10 10 -6 0 -77 39 -158 87
-143 84 -190 111 -262 151 -39 22 -27 15 -325 187 -531 308 -793 460 -835 483
-62 34 -418 241 -455 263 -16 11 -37 22 -45 26 -8 4 -37 20 -65 36 -69 41
-682 395 -725 420 -19 10 -64 36 -100 57 -36 21 -81 47 -101 58 -59 33 -79 46
-79 54 0 6 24 20 87 52 13 6 23 14 23 19 0 4 4 7 9 7 6 0 150 81 321 180 171
99 332 192 358 206 26 14 52 30 57 34 6 4 30 19 55 32 47 26 332 191 725 418
127 73 244 141 260 150 40 23 212 122 233 135 9 6 40 23 67 38 28 15 66 37 85
48 43 26 282 165 330 192 19 11 49 28 65 38 17 11 37 22 45 26 8 4 78 44 155
89 77 44 217 125 310 179 329 190 480 278 510 296 17 9 33 18 38 18 4 1 6
-310 5 -690z"/>
</g>
</svg>
